<svg width="8" height="8" viewBox="0 0 8 8" fill="none" xmlns="http://www.w3.org/2000/svg">
<path d="M6.86162 0.861946L2.66629 5.05728L1.13762 3.52861C1.01189 3.40717 0.843484 3.33998 0.668686 3.3415C0.493888 3.34302 0.32668 3.41313 0.203075 3.53673C0.0794693 3.66034 0.00935665 3.82755 0.0078377 4.00234C0.00631876 4.17714 0.073515 4.34554 0.194954 4.47128L2.19495 6.47128C2.31997 6.59626 2.48951 6.66647 2.66629 6.66647C2.84306 6.66647 3.0126 6.59626 3.13762 6.47128L7.80429 1.80461C7.92573 1.67888 7.99292 1.51048 7.9914 1.33568C7.98988 1.16088 7.91977 0.993672 7.79617 0.870067C7.67256 0.746461 7.50535 0.676349 7.33055 0.67483C7.15576 0.673311 6.98736 0.740507 6.86162 0.861946Z" fill="white"/>
</svg>
