<svg width="10" height="10" viewBox="0 0 10 10" fill="none" xmlns="http://www.w3.org/2000/svg">
<path d="M1.66667 9.99999H6.66667C7.10869 9.99999 7.53262 9.82439 7.84518 9.51183C8.15774 9.19927 8.33333 8.77535 8.33333 8.33332V7.49999C8.33333 7.27898 8.24554 7.06701 8.08926 6.91073C7.93297 6.75445 7.72101 6.66666 7.5 6.66666C7.27899 6.66666 7.06702 6.75445 6.91074 6.91073C6.75446 7.06701 6.66667 7.27898 6.66667 7.49999V8.33332H1.66667V3.33332H2.5C2.72101 3.33332 2.93298 3.24553 3.08926 3.08925C3.24554 2.93297 3.33333 2.721 3.33333 2.49999C3.33333 2.27898 3.24554 2.06701 3.08926 1.91073C2.93298 1.75445 2.72101 1.66666 2.5 1.66666H1.66667C1.22464 1.66666 0.800716 1.84225 0.488155 2.15481C0.175595 2.46737 0 2.8913 0 3.33332L0 8.33332C0 8.77535 0.175595 9.19927 0.488155 9.51183C0.800716 9.82439 1.22464 9.99999 1.66667 9.99999Z" fill="#0099CC"/>
<path d="M9.58316 6.67209e-07H5.41649C5.33397 -0.00014697 5.25327 0.02421 5.18461 0.0699838C5.11596 0.115758 5.06243 0.180887 5.03084 0.257115C4.99924 0.333342 4.99099 0.417236 5.00713 0.49816C5.02326 0.579083 5.06307 0.653393 5.12149 0.711667L6.61566 2.205L4.41066 4.41083C4.33107 4.48771 4.26758 4.57966 4.22391 4.68133C4.18023 4.783 4.15724 4.89235 4.15628 5.003C4.15532 5.11365 4.1764 5.22338 4.21831 5.3258C4.26021 5.42821 4.32208 5.52125 4.40033 5.5995C4.47857 5.67774 4.57161 5.73962 4.67403 5.78152C4.77644 5.82342 4.88618 5.8445 4.99682 5.84354C5.10747 5.84258 5.21682 5.81959 5.31849 5.77592C5.42016 5.73224 5.51212 5.66876 5.58899 5.58917L7.79482 3.38417L9.28816 4.87833C9.32692 4.917 9.37293 4.94765 9.42355 4.96853C9.47417 4.9894 9.5284 5.0001 9.58316 5C9.63775 4.99972 9.69178 4.98897 9.74232 4.96833C9.81852 4.93684 9.88366 4.88344 9.9295 4.81491C9.97534 4.74638 9.99981 4.66578 9.99982 4.58333V0.416667C9.99982 0.30616 9.95593 0.20018 9.87779 0.12204C9.79965 0.0438994 9.69366 6.67209e-07 9.58316 6.67209e-07V6.67209e-07Z" fill="#0099CC"/>
</svg>
