<svg width="81" height="81" viewBox="0 0 81 81" fill="none" xmlns="http://www.w3.org/2000/svg">
<rect x="19.7988" y="-25" width="121.659" height="28" transform="rotate(45 19.7988 -25)" fill="#6FCC18"/>
<path d="M39.0697 21.1409L40.3745 22.4456L42.9237 19.8964L45.4337 22.4065L46.5094 21.3307L43.9994 18.8207L45.4699 17.3503L48.2511 20.1315L49.3268 19.0558L45.2408 14.9698L39.0697 21.1409ZM44.2879 26.359L45.5926 27.6638L47.7802 25.4762L48.7324 26.4283L47.7139 29.7851L49.1542 31.2254L50.242 27.5161C51.2454 27.9169 52.2458 27.6939 53.0895 26.8502C54.3159 25.6238 54.2948 24.0238 52.8937 22.6226L50.459 20.1879L44.2879 26.359ZM48.8288 24.4275L50.697 22.5593L51.5769 23.4392C52.3302 24.1925 52.3603 24.8916 51.7456 25.5063C51.1339 26.118 50.462 26.0607 49.7147 25.3134L48.8288 24.4275ZM50.1109 32.1821L54.2812 36.3524L55.3569 35.2767L52.4913 32.4111L53.9648 30.9376L56.6044 33.5772L57.6801 32.5015L55.0405 29.8619L56.511 28.3914L59.3645 31.2449L60.4403 30.1692L56.282 26.0109L50.1109 32.1821ZM55.561 37.6322L59.7313 41.8025L60.8071 40.7268L57.9415 37.8612L59.4149 36.3877L62.0545 39.0273L63.1303 37.9516L60.4907 35.312L61.9611 33.8415L64.8147 36.6951L65.8904 35.6193L61.7321 31.4611L55.561 37.6322Z" fill="white"/>
</svg>
