<svg width="16" height="16" viewBox="0 0 16 16" fill="none" xmlns="http://www.w3.org/2000/svg">
<path fill-rule="evenodd" clip-rule="evenodd" d="M13.3279 6.656C13.4359 7.087 13.4999 7.535 13.4999 8C13.4999 8.464 13.4359 8.913 13.3299 9.345L15.2469 10.452L13.7469 13.05L11.8309 11.944C11.1859 12.569 10.3899 13.036 9.50088 13.288V15.5H6.50088V13.287C5.61188 13.036 4.81488 12.569 4.17088 11.943L2.25488 13.049L0.754883 10.451L2.67188 9.344C2.56388 8.913 2.49988 8.464 2.49988 8C2.49988 7.535 2.56388 7.087 2.67188 6.656L0.754883 5.549L2.25488 2.951L4.16988 4.057C4.81488 3.431 5.61188 2.964 6.49988 2.712V0.5H9.49988V2.713C10.3889 2.964 11.1859 3.431 11.8299 4.057L13.7449 2.951L15.2449 5.549L13.3279 6.656ZM6.25 8C6.25 7.0335 7.0335 6.25 8 6.25C8.9665 6.25 9.75 7.0335 9.75 8C9.75 8.9665 8.9665 9.75 8 9.75C7.0335 9.75 6.25 8.9665 6.25 8ZM8 4.75C6.20507 4.75 4.75 6.20507 4.75 8C4.75 9.79493 6.20507 11.25 8 11.25C9.79493 11.25 11.25 9.79493 11.25 8C11.25 6.20507 9.79493 4.75 8 4.75Z" fill="#0099CC"/>
</svg>
