<svg width="18" height="18" viewBox="0 0 18 18" fill="none" xmlns="http://www.w3.org/2000/svg">
<path d="M10.5 7.5H16.5C16.5 5.9087 15.8679 4.38258 14.7426 3.25736C13.6174 2.13214 12.0913 1.5 10.5 1.5V7.5Z" stroke="#9BA6B2" stroke-width="1.5" stroke-linecap="round" stroke-linejoin="round"/>
<path d="M7.5 4.5C6.31331 4.5 5.15328 4.85189 4.16658 5.51118C3.17989 6.17047 2.41085 7.10754 1.95673 8.2039C1.5026 9.30026 1.38378 10.5067 1.61529 11.6705C1.8468 12.8344 2.41825 13.9035 3.25736 14.7426C4.09648 15.5818 5.16558 16.1532 6.32946 16.3847C7.49335 16.6162 8.69975 16.4974 9.7961 16.0433C10.8925 15.5892 11.8295 14.8201 12.4888 13.8334C13.1481 12.8467 13.5 11.6867 13.5 10.5H7.5V4.5Z" stroke="#9BA6B2" stroke-width="1.5" stroke-linecap="round" stroke-linejoin="round"/>
</svg>
