<svg width="18" height="18" viewBox="0 0 18 18" fill="none" xmlns="http://www.w3.org/2000/svg">
<path d="M9 0C4.05 0 0 4.05 0 9C0 13.95 4.05 18 9 18C13.95 18 18 13.95 18 9C18 4.05 13.95 0 9 0ZM15.6375 7.875H13.5C13.3875 6.1875 13.05 4.6125 12.6 3.2625C14.175 4.275 15.3 5.9625 15.6375 7.875ZM9 15.75C8.325 15.75 6.975 13.6125 6.75 10.125H11.25C11.025 13.6125 9.675 15.75 9 15.75ZM6.75 7.875C6.975 4.3875 8.2125 2.25 9 2.25C9.7875 2.25 11.025 4.3875 11.25 7.875H6.75ZM5.5125 3.2625C4.95 4.6125 4.6125 6.1875 4.5 7.875H2.3625C2.7 5.9625 3.825 4.275 5.5125 3.2625ZM2.3625 10.125H4.5C4.6125 11.8125 4.95 13.3875 5.4 14.7375C3.825 13.725 2.7 12.0375 2.3625 10.125ZM12.4875 14.7375C13.05 13.3875 13.275 11.8125 13.3875 10.125H15.525C15.3 12.0375 14.175 13.725 12.4875 14.7375Z" fill="#0099CC"/>
</svg>
