<svg width="12" height="12" viewBox="0 0 12 12" fill="none" xmlns="http://www.w3.org/2000/svg">
<path d="M2 7C2 7.26522 2.10536 7.51957 2.29289 7.70711C2.48043 7.89464 2.73478 8 3 8H10C10.2098 7.99984 10.4142 7.9337 10.5844 7.81095C10.7545 7.6882 10.8817 7.51504 10.948 7.316L11.948 4.316C11.998 4.16575 12.0117 4.00576 11.9878 3.8492C11.9639 3.69264 11.9032 3.544 11.8106 3.4155C11.7181 3.287 11.5963 3.18233 11.4554 3.11009C11.3144 3.03785 11.1584 3.00012 11 3H4V1C4 0.734784 3.89464 0.48043 3.70711 0.292893C3.51957 0.105357 3.26522 0 3 0L0 0V2H2V7Z" fill="#0099CC"/>
<path d="M2.5 12C3.32843 12 4 11.3284 4 10.5C4 9.67157 3.32843 9 2.5 9C1.67157 9 1 9.67157 1 10.5C1 11.3284 1.67157 12 2.5 12Z" fill="#0099CC"/>
<path d="M10.5 12C11.3284 12 12 11.3284 12 10.5C12 9.67157 11.3284 9 10.5 9C9.67157 9 9 9.67157 9 10.5C9 11.3284 9.67157 12 10.5 12Z" fill="#9BA6B2"/>
</svg>
