<svg width="16" height="18" viewBox="0 0 16 18" fill="none" xmlns="http://www.w3.org/2000/svg">
<g opacity="0.48">
<path d="M8 11.5C9.38071 11.5 10.5 10.3807 10.5 9C10.5 7.61929 9.38071 6.5 8 6.5C6.61929 6.5 5.5 7.61929 5.5 9C5.5 10.3807 6.61929 11.5 8 11.5Z" stroke="white" stroke-width="1.5" stroke-miterlimit="10" stroke-linecap="round" stroke-linejoin="round"/>
<path d="M13.4999 9C13.4999 8.535 13.4359 8.087 13.3279 7.656L15.2449 6.549L13.7449 3.951L11.8299 5.057C11.1859 4.431 10.3889 3.964 9.49988 3.713V1.5H6.49988V3.712C5.61188 3.964 4.81488 4.431 4.16988 5.057L2.25488 3.951L0.754883 6.549L2.67188 7.656C2.56388 8.087 2.49988 8.535 2.49988 9C2.49988 9.464 2.56388 9.913 2.67188 10.344L0.754883 11.451L2.25488 14.049L4.17088 12.943C4.81488 13.569 5.61188 14.036 6.50088 14.287V16.5H9.50088V14.288C10.3899 14.036 11.1859 13.569 11.8309 12.944L13.7469 14.05L15.2469 11.452L13.3299 10.345C13.4359 9.913 13.4999 9.464 13.4999 9Z" stroke="white" stroke-width="1.5" stroke-miterlimit="10" stroke-linecap="round" stroke-linejoin="round"/>
</g>
</svg>
