<svg width="40" height="40" viewBox="0 0 40 40" fill="none" xmlns="http://www.w3.org/2000/svg">
<circle cx="20" cy="20" r="20" fill="#0099CC"/>
<g clip-path="url(#clip0)">
<path d="M25.954 18.291C25.9141 18.2042 25.8501 18.1306 25.7696 18.0791C25.6891 18.0275 25.5956 18 25.5 18H20.141L20.985 14.621C21.0118 14.5119 21.0011 14.3971 20.9546 14.2948C20.9081 14.1926 20.8286 14.109 20.7288 14.0575C20.629 14.006 20.5148 13.9896 20.4045 14.0109C20.2943 14.0322 20.1944 14.09 20.121 14.175L14.121 21.175C14.0589 21.2476 14.0189 21.3364 14.0058 21.431C13.9926 21.5256 14.0068 21.622 14.0466 21.7087C14.0865 21.7955 14.1504 21.8691 14.2307 21.9207C14.3111 21.9723 14.4045 21.9998 14.5 22H19.859L19.015 25.379C18.9878 25.4882 18.9983 25.6035 19.0448 25.706C19.0913 25.8085 19.171 25.8924 19.271 25.944C19.3416 25.981 19.4203 26.0003 19.5 26C19.5721 25.9999 19.6432 25.9842 19.7086 25.9539C19.7741 25.9237 19.8322 25.8798 19.879 25.825L25.879 18.825C25.9412 18.7525 25.9814 18.6636 25.9947 18.569C26.008 18.4743 25.9939 18.3779 25.954 18.291Z" fill="white"/>
</g>
<defs>
<clipPath id="clip0">
<rect width="12" height="12" fill="white" transform="translate(14 14)"/>
</clipPath>
</defs>
</svg>
