<svg width="40" height="40" viewBox="0 0 40 40" fill="none" xmlns="http://www.w3.org/2000/svg">
<circle cx="20" cy="20" r="20" fill="#E7EAED"/>
<path d="M20 14C20.2652 14 20.5196 14.1054 20.7071 14.2929C20.8946 14.4804 21 14.7348 21 15V19H19V15C19 14.7348 19.1054 14.4804 19.2929 14.2929C19.4804 14.1054 19.7348 14 20 14V14Z" fill="#9BA6B2"/>
<path d="M25 16H22V18H24V24H16V18H18V16H15C14.7348 16 14.4804 16.1054 14.2929 16.2929C14.1054 16.4804 14 16.7348 14 17V25C14 25.2652 14.1054 25.5196 14.2929 25.7071C14.4804 25.8946 14.7348 26 15 26H25C25.2652 26 25.5196 25.8946 25.7071 25.7071C25.8946 25.5196 26 25.2652 26 25V17C26 16.7348 25.8946 16.4804 25.7071 16.2929C25.5196 16.1054 25.2652 16 25 16Z" fill="#9BA6B2"/>
<path d="M23 20H17V21H23V20Z" fill="#9BA6B2"/>
<path d="M23 22H17V23H23V22Z" fill="#9BA6B2"/>
</svg>
