<svg width="40" height="40" viewBox="0 0 40 40" fill="none" xmlns="http://www.w3.org/2000/svg">
<circle cx="20" cy="20" r="20" fill="#6FCC18"/>
<path d="M24.293 15.293L18 21.586L15.707 19.293C15.5184 19.1108 15.2658 19.0101 15.0036 19.0123C14.7414 19.0146 14.4906 19.1198 14.3052 19.3052C14.1198 19.4906 14.0146 19.7414 14.0124 20.0036C14.0101 20.2658 14.1109 20.5184 14.293 20.707L17.293 23.707C17.4806 23.8945 17.7349 23.9998 18 23.9998C18.2652 23.9998 18.5195 23.8945 18.707 23.707L25.707 16.707C25.8892 16.5184 25.99 16.2658 25.9877 16.0036C25.9854 15.7414 25.8803 15.4906 25.6949 15.3052C25.5095 15.1198 25.2586 15.0146 24.9964 15.0123C24.7342 15.0101 24.4816 15.1108 24.293 15.293Z" fill="white"/>
</svg>
