<svg width="12" height="12" viewBox="0 0 12 12" fill="none" xmlns="http://www.w3.org/2000/svg">
<g clip-path="url(#clip0)">
<path d="M6 -3.747e-06C4.83238 -0.000180668 3.69008 0.340331 2.71314 0.979787C1.73619 1.61924 0.967047 2.52986 0.5 3.6L2.332 4.4C2.64346 3.68636 3.15642 3.07914 3.80798 2.65282C4.45954 2.2265 5.22136 1.99962 6 2C6.51996 2.00163 7.03448 2.10602 7.51397 2.30715C7.99346 2.50828 8.42847 2.80219 8.794 3.172L6.875 5.072L12 5.639V-3.747e-06L10.229 1.752C9.67511 1.19464 9.01609 0.752776 8.29014 0.45203C7.5642 0.151284 6.78577 -0.00236335 6 -3.747e-06Z" fill="#0099CC"/>
<path d="M6 9.99999C5.48004 9.99836 4.96552 9.89397 4.48603 9.69284C4.00654 9.49171 3.57153 9.19779 3.206 8.82799L5.125 6.92799L0 6.36099V12L1.771 10.248C2.32489 10.8054 2.98391 11.2472 3.70986 11.548C4.4358 11.8487 5.21423 12.0024 6 12C7.16762 12.0002 8.30992 11.6597 9.28686 11.0202C10.2638 10.3807 11.033 9.47013 11.5 8.39999L9.668 7.59999C9.35654 8.31363 8.84358 8.92084 8.19202 9.34716C7.54046 9.77348 6.77864 10.0004 6 9.99999Z" fill="#0099CC"/>
</g>
<defs>
<clipPath id="clip0">
<rect width="12" height="12" fill="white"/>
</clipPath>
</defs>
</svg>
